<?xml version="1.0" encoding="UTF-8" standalone="no"?>
<!DOCTYPE svg PUBLIC "-//W3C//DTD SVG 1.1//EN" "http://www.w3.org/Graphics/SVG/1.1/DTD/svg11.dtd">
<svg width="100%" height="100%" viewBox="0 0 1200 760" version="1.1" xmlns="http://www.w3.org/2000/svg" xmlns:xlink="http://www.w3.org/1999/xlink" xml:space="preserve" xmlns:serif="http://www.serif.com/" style="fill-rule:evenodd;clip-rule:evenodd;stroke-linejoin:round;stroke-miterlimit:1.41421;">
    <g transform="matrix(1,0,0,1,-2864.02,-953.344)">
        <g id="Artboard1" transform="matrix(1,0,0,1,2864.02,953.344)">
            <rect x="0" y="0" width="1200" height="760" style="fill:none;"/>
            <g transform="matrix(1,0,0,1,212.203,225.082)">
                <g transform="matrix(1,0,0,1,-259.752,-1037.67)">
                    <rect x="295.39" y="945.422" width="164.775" height="164.775" style="fill:white;"/>
                </g>
                <g transform="matrix(0.384873,0,0,0.384873,-1079.75,-523.025)">
                    <path d="M3003.32,1416.49C2994.19,1416.43 2986.79,1409 2986.79,1399.86C2986.79,1390.68 2994.24,1383.23 3003.42,1383.23L3020.05,1383.23C3029.23,1383.23 3036.68,1390.68 3036.68,1399.86C3036.68,1409.04 3029.23,1416.49 3020.05,1416.49L3003.42,1416.49L3003.32,1416.49ZM3204.2,1416.49L3069.94,1416.49C3060.76,1416.49 3053.31,1409.04 3053.31,1399.86C3053.31,1390.68 3060.76,1383.23 3069.94,1383.23L3104.43,1383.23C3113.61,1383.23 3121.06,1375.78 3121.06,1366.6C3121.06,1357.46 3113.66,1350.03 3104.54,1349.97L3104.43,1349.97L3069.94,1349.97C3060.76,1349.97 3053.31,1342.52 3053.31,1333.34C3053.31,1324.17 3060.76,1316.71 3069.94,1316.71L3121.06,1316.71C3130.24,1316.71 3137.69,1309.26 3137.69,1300.09C3137.69,1290.94 3130.29,1283.52 3121.16,1283.46L3121.06,1283.46L2995.11,1283.46C2985.93,1283.46 2978.48,1276.01 2978.48,1266.83C2978.48,1257.65 2985.93,1250.2 2995.11,1250.2L3187.57,1250.2C3212.35,1250.2 3232.93,1268.3 3236.81,1291.99C3257.04,1303.4 3270.72,1325.1 3270.72,1349.97C3270.72,1386.68 3240.91,1416.49 3204.2,1416.49ZM3020.05,1349.97L2970.17,1349.97C2960.99,1349.97 2953.54,1342.52 2953.54,1333.34C2953.54,1324.17 2960.99,1316.71 2970.17,1316.71L3020.05,1316.71C3029.23,1316.71 3036.68,1324.17 3036.68,1333.34C3036.68,1342.52 3029.23,1349.97 3020.05,1349.97Z" style="fill:rgb(39,76,119);"/>
                </g>
            </g>
            <g transform="matrix(2,0,0,2,34.3989,482.101)">
                <g transform="matrix(1,0,0,1,-259.752,-1037.67)">
                    <rect x="295.39" y="945.422" width="164.775" height="164.775" style="fill:white;"/>
                </g>
                <g transform="matrix(0.384873,0,0,0.384873,-1079.75,-523.025)">
                    <path d="M3003.32,1416.49C2994.19,1416.43 2986.79,1409 2986.79,1399.86C2986.79,1390.68 2994.24,1383.23 3003.42,1383.23L3020.05,1383.23C3029.23,1383.23 3036.68,1390.68 3036.68,1399.86C3036.68,1409.04 3029.23,1416.49 3020.05,1416.49L3003.42,1416.49L3003.32,1416.49ZM3204.2,1416.49L3069.94,1416.49C3060.76,1416.49 3053.31,1409.04 3053.31,1399.86C3053.31,1390.68 3060.76,1383.23 3069.94,1383.23L3104.43,1383.23C3113.61,1383.23 3121.06,1375.78 3121.06,1366.6C3121.06,1357.46 3113.66,1350.03 3104.54,1349.97L3104.43,1349.97L3069.94,1349.97C3060.76,1349.97 3053.31,1342.52 3053.31,1333.34C3053.31,1324.17 3060.76,1316.71 3069.94,1316.71L3121.06,1316.71C3130.24,1316.71 3137.69,1309.26 3137.69,1300.09C3137.69,1290.94 3130.29,1283.52 3121.16,1283.46L3121.06,1283.46L2995.11,1283.46C2985.93,1283.46 2978.48,1276.01 2978.48,1266.83C2978.48,1257.65 2985.93,1250.2 2995.11,1250.2L3187.57,1250.2C3212.35,1250.2 3232.93,1268.3 3236.81,1291.99C3257.04,1303.4 3270.72,1325.1 3270.72,1349.97C3270.72,1386.68 3240.91,1416.49 3204.2,1416.49ZM3020.05,1349.97L2970.17,1349.97C2960.99,1349.97 2953.54,1342.52 2953.54,1333.34C2953.54,1324.17 2960.99,1316.71 2970.17,1316.71L3020.05,1316.71C3029.23,1316.71 3036.68,1324.17 3036.68,1333.34C3036.68,1342.52 3029.23,1349.97 3020.05,1349.97Z" style="fill:rgb(39,76,119);"/>
                </g>
            </g>
            <g transform="matrix(2,0,0,2,363.949,482.101)">
                <g transform="matrix(1,0,0,1,-259.752,-1037.67)">
                    <rect x="295.39" y="945.422" width="164.775" height="164.775" style="fill:white;"/>
                </g>
                <g transform="matrix(0.384873,0,0,0.384873,-1079.75,-523.025)">
                    <path d="M3003.32,1416.49C2994.19,1416.43 2986.79,1409 2986.79,1399.86C2986.79,1390.68 2994.24,1383.23 3003.42,1383.23L3020.05,1383.23C3029.23,1383.23 3036.68,1390.68 3036.68,1399.86C3036.68,1409.04 3029.23,1416.49 3020.05,1416.49L3003.42,1416.49L3003.32,1416.49ZM3204.2,1416.49L3069.94,1416.49C3060.76,1416.49 3053.31,1409.04 3053.31,1399.86C3053.31,1390.68 3060.76,1383.23 3069.94,1383.23L3104.43,1383.23C3113.61,1383.23 3121.06,1375.78 3121.06,1366.6C3121.06,1357.46 3113.66,1350.03 3104.54,1349.97L3104.43,1349.97L3069.94,1349.97C3060.76,1349.97 3053.31,1342.52 3053.31,1333.34C3053.31,1324.17 3060.76,1316.71 3069.94,1316.71L3121.06,1316.71C3130.24,1316.71 3137.69,1309.26 3137.69,1300.09C3137.69,1290.94 3130.29,1283.52 3121.16,1283.46L3121.06,1283.46L2995.11,1283.46C2985.93,1283.46 2978.48,1276.01 2978.48,1266.83C2978.48,1257.65 2985.93,1250.2 2995.11,1250.2L3187.57,1250.2C3212.35,1250.2 3232.93,1268.3 3236.81,1291.99C3257.04,1303.4 3270.72,1325.1 3270.72,1349.97C3270.72,1386.68 3240.91,1416.49 3204.2,1416.49ZM3020.05,1349.97L2970.17,1349.97C2960.99,1349.97 2953.54,1342.52 2953.54,1333.34C2953.54,1324.17 2960.99,1316.71 2970.17,1316.71L3020.05,1316.71C3029.23,1316.71 3036.68,1324.17 3036.68,1333.34C3036.68,1342.52 3029.23,1349.97 3020.05,1349.97Z" style="fill:rgb(240,80,110);"/>
                </g>
            </g>
            <g transform="matrix(2,0,0,2,693.499,482.101)">
                <g transform="matrix(1,0,0,1,-259.752,-1037.67)">
                    <rect x="295.39" y="945.422" width="164.775" height="164.775" style="fill:white;"/>
                </g>
                <g transform="matrix(0.384873,0,0,0.384873,-1079.75,-523.025)">
                    <path d="M3003.32,1416.49C2994.19,1416.43 2986.79,1409 2986.79,1399.86C2986.79,1390.68 2994.24,1383.23 3003.42,1383.23L3020.05,1383.23C3029.23,1383.23 3036.68,1390.68 3036.68,1399.86C3036.68,1409.04 3029.23,1416.49 3020.05,1416.49L3003.42,1416.49L3003.32,1416.49ZM3204.2,1416.49L3069.94,1416.49C3060.76,1416.49 3053.31,1409.04 3053.31,1399.86C3053.31,1390.68 3060.76,1383.23 3069.94,1383.23L3104.43,1383.23C3113.61,1383.23 3121.06,1375.78 3121.06,1366.6C3121.06,1357.46 3113.66,1350.03 3104.54,1349.97L3104.43,1349.97L3069.94,1349.97C3060.76,1349.97 3053.31,1342.52 3053.31,1333.34C3053.31,1324.17 3060.76,1316.71 3069.94,1316.71L3121.06,1316.71C3130.24,1316.71 3137.69,1309.26 3137.69,1300.09C3137.69,1290.94 3130.29,1283.52 3121.16,1283.46L3121.06,1283.46L2995.11,1283.46C2985.93,1283.46 2978.48,1276.01 2978.48,1266.83C2978.48,1257.65 2985.93,1250.2 2995.11,1250.2L3187.57,1250.2C3212.35,1250.2 3232.93,1268.3 3236.81,1291.99C3257.04,1303.4 3270.72,1325.1 3270.72,1349.97C3270.72,1386.68 3240.91,1416.49 3204.2,1416.49ZM3020.05,1349.97L2970.17,1349.97C2960.99,1349.97 2953.54,1342.52 2953.54,1333.34C2953.54,1324.17 2960.99,1316.71 2970.17,1316.71L3020.05,1316.71C3029.23,1316.71 3036.68,1324.17 3036.68,1333.34C3036.68,1342.52 3029.23,1349.97 3020.05,1349.97Z" style="fill:rgb(50,210,150);"/>
                </g>
            </g>
            <g transform="matrix(1,0,0,1,376.978,225.082)">
                <g transform="matrix(1,0,0,1,-259.752,-1037.67)">
                    <rect x="295.39" y="945.422" width="164.775" height="164.775" style="fill:rgb(39,76,119);"/>
                </g>
                <g transform="matrix(0.384873,0,0,0.384873,-1079.75,-523.025)">
                    <path d="M3003.32,1416.49C2994.19,1416.43 2986.79,1409 2986.79,1399.86C2986.79,1390.68 2994.24,1383.23 3003.42,1383.23L3020.05,1383.23C3029.23,1383.23 3036.68,1390.68 3036.68,1399.86C3036.68,1409.04 3029.23,1416.49 3020.05,1416.49L3003.42,1416.49L3003.32,1416.49ZM3204.2,1416.49L3069.94,1416.49C3060.76,1416.49 3053.31,1409.04 3053.31,1399.86C3053.31,1390.68 3060.76,1383.23 3069.94,1383.23L3104.43,1383.23C3113.61,1383.23 3121.06,1375.78 3121.06,1366.6C3121.06,1357.46 3113.66,1350.03 3104.54,1349.97L3104.43,1349.97L3069.94,1349.97C3060.76,1349.97 3053.31,1342.52 3053.31,1333.34C3053.31,1324.17 3060.76,1316.71 3069.94,1316.71L3121.06,1316.71C3130.24,1316.71 3137.69,1309.26 3137.69,1300.09C3137.69,1290.94 3130.29,1283.52 3121.16,1283.46L3121.06,1283.46L2995.11,1283.46C2985.93,1283.46 2978.48,1276.01 2978.48,1266.83C2978.48,1257.65 2985.93,1250.2 2995.11,1250.2L3187.57,1250.2C3212.35,1250.2 3232.93,1268.3 3236.81,1291.99C3257.04,1303.4 3270.72,1325.1 3270.72,1349.97C3270.72,1386.68 3240.91,1416.49 3204.2,1416.49ZM3020.05,1349.97L2970.17,1349.97C2960.99,1349.97 2953.54,1342.52 2953.54,1333.34C2953.54,1324.17 2960.99,1316.71 2970.17,1316.71L3020.05,1316.71C3029.23,1316.71 3036.68,1324.17 3036.68,1333.34C3036.68,1342.52 3029.23,1349.97 3020.05,1349.97Z" style="fill:white;"/>
                </g>
            </g>
            <g transform="matrix(1,0,0,1,541.753,225.082)">
                <g transform="matrix(1,0,0,1,-259.752,-1037.67)">
                    <rect x="295.39" y="945.422" width="164.775" height="164.775" style="fill:white;"/>
                </g>
                <g transform="matrix(0.384873,0,0,0.384873,-1079.75,-523.025)">
                    <path d="M3003.32,1416.49C2994.19,1416.43 2986.79,1409 2986.79,1399.86C2986.79,1390.68 2994.24,1383.23 3003.42,1383.23L3020.05,1383.23C3029.23,1383.23 3036.68,1390.68 3036.68,1399.86C3036.68,1409.04 3029.23,1416.49 3020.05,1416.49L3003.42,1416.49L3003.32,1416.49ZM3204.2,1416.49L3069.94,1416.49C3060.76,1416.49 3053.31,1409.04 3053.31,1399.86C3053.31,1390.68 3060.76,1383.23 3069.94,1383.23L3104.43,1383.23C3113.61,1383.23 3121.06,1375.78 3121.06,1366.6C3121.06,1357.46 3113.66,1350.03 3104.54,1349.97L3104.43,1349.97L3069.94,1349.97C3060.76,1349.97 3053.31,1342.52 3053.31,1333.34C3053.31,1324.17 3060.76,1316.71 3069.94,1316.71L3121.06,1316.71C3130.24,1316.71 3137.69,1309.26 3137.69,1300.09C3137.69,1290.94 3130.29,1283.52 3121.16,1283.46L3121.06,1283.46L2995.11,1283.46C2985.93,1283.46 2978.48,1276.01 2978.48,1266.83C2978.48,1257.65 2985.93,1250.2 2995.11,1250.2L3187.57,1250.2C3212.35,1250.2 3232.93,1268.3 3236.81,1291.99C3257.04,1303.4 3270.72,1325.1 3270.72,1349.97C3270.72,1386.68 3240.91,1416.49 3204.2,1416.49ZM3020.05,1349.97L2970.17,1349.97C2960.99,1349.97 2953.54,1342.52 2953.54,1333.34C2953.54,1324.17 2960.99,1316.71 2970.17,1316.71L3020.05,1316.71C3029.23,1316.71 3036.68,1324.17 3036.68,1333.34C3036.68,1342.52 3029.23,1349.97 3020.05,1349.97Z"/>
                </g>
            </g>
            <g transform="matrix(1,0,0,1,706.528,225.082)">
                <g transform="matrix(1,0,0,1,-259.752,-1037.67)">
                    <rect x="295.39" y="945.422" width="164.775" height="164.775"/>
                </g>
                <g transform="matrix(0.384873,0,0,0.384873,-1079.75,-523.025)">
                    <path d="M3003.32,1416.49C2994.19,1416.43 2986.79,1409 2986.79,1399.86C2986.79,1390.68 2994.24,1383.23 3003.42,1383.23L3020.05,1383.23C3029.23,1383.23 3036.68,1390.68 3036.68,1399.86C3036.68,1409.04 3029.23,1416.49 3020.05,1416.49L3003.42,1416.49L3003.32,1416.49ZM3204.2,1416.49L3069.94,1416.49C3060.76,1416.49 3053.31,1409.04 3053.31,1399.86C3053.31,1390.68 3060.76,1383.23 3069.94,1383.23L3104.43,1383.23C3113.61,1383.23 3121.06,1375.78 3121.06,1366.6C3121.06,1357.46 3113.66,1350.03 3104.54,1349.97L3104.43,1349.97L3069.94,1349.97C3060.76,1349.97 3053.31,1342.52 3053.31,1333.34C3053.31,1324.17 3060.76,1316.71 3069.94,1316.71L3121.06,1316.71C3130.24,1316.71 3137.69,1309.26 3137.69,1300.09C3137.69,1290.94 3130.29,1283.52 3121.16,1283.46L3121.06,1283.46L2995.11,1283.46C2985.93,1283.46 2978.48,1276.01 2978.48,1266.83C2978.48,1257.65 2985.93,1250.2 2995.11,1250.2L3187.57,1250.2C3212.35,1250.2 3232.93,1268.3 3236.81,1291.99C3257.04,1303.4 3270.72,1325.1 3270.72,1349.97C3270.72,1386.68 3240.91,1416.49 3204.2,1416.49ZM3020.05,1349.97L2970.17,1349.97C2960.99,1349.97 2953.54,1342.52 2953.54,1333.34C2953.54,1324.17 2960.99,1316.71 2970.17,1316.71L3020.05,1316.71C3029.23,1316.71 3036.68,1324.17 3036.68,1333.34C3036.68,1342.52 3029.23,1349.97 3020.05,1349.97Z" style="fill:white;"/>
                </g>
            </g>
        </g>
    </g>
</svg>
