<?xml version="1.0" encoding="UTF-8" standalone="no"?>
<!DOCTYPE svg PUBLIC "-//W3C//DTD SVG 1.1//EN" "http://www.w3.org/Graphics/SVG/1.1/DTD/svg11.dtd">
<svg width="100%" height="100%" viewBox="0 0 1200 760" version="1.1" xmlns="http://www.w3.org/2000/svg" xmlns:xlink="http://www.w3.org/1999/xlink" xml:space="preserve" xmlns:serif="http://www.serif.com/" style="fill-rule:evenodd;clip-rule:evenodd;stroke-linejoin:round;stroke-miterlimit:1.41421;">
    <g transform="matrix(1,0,0,1,-2864.02,-2925.75)">
        <g id="Artboard1" transform="matrix(1,0,0,1,2864.02,2925.75)">
            <rect x="0" y="0" width="1200" height="760" style="fill:none;"/>
            <g transform="matrix(1.65171,0,0,1.65171,-5160.65,-3142.81)">
                <path d="M3432.99,2150.74L3423.39,2150.74L3423.33,2150.74C3418.06,2150.7 3413.79,2146.42 3413.79,2141.14C3413.79,2135.84 3418.09,2131.54 3423.39,2131.54L3432.99,2131.54C3438.29,2131.54 3442.59,2135.84 3442.59,2141.14C3442.59,2146.44 3438.29,2150.74 3432.99,2150.74ZM3539.3,2150.74L3461.79,2150.74C3456.49,2150.74 3452.19,2146.44 3452.19,2141.14C3452.19,2135.84 3456.49,2131.54 3461.79,2131.54L3481.7,2131.54C3487,2131.54 3491.3,2127.24 3491.3,2121.94C3491.3,2116.66 3487.03,2112.37 3481.76,2112.34L3481.7,2112.34L3461.79,2112.34C3456.49,2112.34 3452.19,2108.04 3452.19,2102.74C3452.19,2097.44 3456.49,2093.14 3461.79,2093.14L3491.3,2093.14C3496.6,2093.14 3500.9,2088.84 3500.9,2083.54C3500.9,2078.26 3496.63,2073.97 3491.36,2073.94L3491.3,2073.94L3418.59,2073.94C3413.29,2073.94 3408.99,2069.64 3408.99,2064.34C3408.99,2059.04 3413.29,2054.74 3418.59,2054.74L3529.7,2054.74C3544,2054.74 3555.89,2065.19 3558.12,2078.87C3569.8,2085.45 3577.7,2097.98 3577.7,2112.34C3577.7,2133.53 3560.49,2150.74 3539.3,2150.74ZM3432.99,2112.34L3404.19,2112.34C3398.89,2112.34 3394.59,2108.04 3394.59,2102.74C3394.59,2097.44 3398.89,2093.14 3404.19,2093.14L3432.99,2093.14C3438.29,2093.14 3442.59,2097.44 3442.59,2102.74C3442.59,2108.04 3438.29,2112.34 3432.99,2112.34Z" style="fill:rgb(39,76,119);"/>
            </g>
            <g transform="matrix(1.65171,0,0,1.65171,-4382.23,-3231.87)">
                <path d="M2903.7,2235.98C2903.7,2232.98 2904.53,2230.82 2906.18,2229.5C2907.83,2228.19 2909.82,2227.53 2912.15,2227.53C2918.78,2227.53 2924.12,2227.74 2928.15,2228.18L2928.15,2234.38L2914.2,2234.38C2913.2,2234.38 2912.43,2234.65 2911.9,2235.2C2911.37,2235.75 2911.1,2236.46 2911.1,2237.33L2911.1,2243.68L2925.75,2244.08L2925.75,2249.93L2911.1,2250.33L2911.1,2264.53L2903.7,2264.53L2903.7,2235.98Z" style="fill:rgb(39,76,119);fill-rule:nonzero;"/>
                <path d="M2932,2237.68L2937.7,2237.68L2939.4,2241.78C2940.47,2240.38 2941.61,2239.29 2942.83,2238.5C2944.04,2237.72 2945.43,2237.33 2947,2237.33C2947.87,2237.33 2948.6,2237.41 2949.2,2237.58L2949.2,2245.18C2947.47,2245.01 2946.42,2244.93 2946.05,2244.93C2944.62,2244.93 2943.39,2245.16 2942.35,2245.63C2941.32,2246.1 2940.34,2246.83 2939.4,2247.83L2939.4,2264.53L2932,2264.53L2932,2237.68Z" style="fill:rgb(39,76,119);fill-rule:nonzero;"/>
                <path d="M2964.45,2264.78C2961.42,2264.78 2959.03,2264.38 2957.3,2263.58C2955.57,2262.78 2954.31,2261.39 2953.53,2259.43C2952.74,2257.46 2952.35,2254.7 2952.35,2251.13C2952.35,2247.46 2952.72,2244.64 2953.45,2242.65C2954.18,2240.67 2955.39,2239.28 2957.08,2238.48C2958.76,2237.68 2961.14,2237.28 2964.2,2237.28C2966.93,2237.28 2969.09,2237.55 2970.65,2238.08C2972.22,2238.61 2973.36,2239.55 2974.08,2240.88C2974.79,2242.21 2975.15,2244.1 2975.15,2246.53C2975.15,2249.13 2974.41,2250.98 2972.93,2252.08C2971.44,2253.18 2969.28,2253.73 2966.45,2253.73L2959.7,2253.73C2959.77,2255.16 2959.99,2256.27 2960.35,2257.05C2960.72,2257.84 2961.37,2258.4 2962.3,2258.75C2963.24,2259.1 2964.6,2259.28 2966.4,2259.28L2974.25,2259.28L2974.25,2263.63C2972.49,2263.99 2970.89,2264.28 2969.45,2264.48C2968.02,2264.68 2966.35,2264.78 2964.45,2264.78ZM2965.7,2249.33C2966.74,2249.33 2967.48,2249.12 2967.93,2248.7C2968.38,2248.29 2968.6,2247.58 2968.6,2246.58C2968.6,2245.11 2968.27,2244.09 2967.6,2243.5C2966.93,2242.92 2965.8,2242.63 2964.2,2242.63C2963.03,2242.63 2962.13,2242.82 2961.48,2243.2C2960.83,2243.59 2960.35,2244.26 2960.05,2245.23C2959.75,2246.2 2959.6,2247.56 2959.6,2249.33L2965.7,2249.33Z" style="fill:rgb(39,76,119);fill-rule:nonzero;"/>
                <path d="M2991.3,2264.78C2988.27,2264.78 2985.89,2264.38 2984.15,2263.58C2982.42,2262.78 2981.16,2261.39 2980.38,2259.43C2979.59,2257.46 2979.2,2254.7 2979.2,2251.13C2979.2,2247.46 2979.57,2244.64 2980.3,2242.65C2981.03,2240.67 2982.24,2239.28 2983.93,2238.48C2985.61,2237.68 2987.99,2237.28 2991.05,2237.28C2993.78,2237.28 2995.93,2237.55 2997.5,2238.08C2999.07,2238.61 3000.21,2239.55 3000.93,2240.88C3001.64,2242.21 3002,2244.1 3002,2246.53C3002,2249.13 3001.26,2250.98 2999.78,2252.08C2998.29,2253.18 2996.14,2253.73 2993.3,2253.73L2986.55,2253.73C2986.62,2255.16 2986.84,2256.27 2987.2,2257.05C2987.57,2257.84 2988.22,2258.4 2989.15,2258.75C2990.09,2259.1 2991.45,2259.28 2993.25,2259.28L3001.1,2259.28L3001.1,2263.63C2999.34,2263.99 2997.74,2264.28 2996.3,2264.48C2994.87,2264.68 2993.2,2264.78 2991.3,2264.78ZM2992.55,2249.33C2993.59,2249.33 2994.33,2249.12 2994.78,2248.7C2995.23,2248.29 2995.45,2247.58 2995.45,2246.58C2995.45,2245.11 2995.12,2244.09 2994.45,2243.5C2993.78,2242.92 2992.65,2242.63 2991.05,2242.63C2989.89,2242.63 2988.98,2242.82 2988.33,2243.2C2987.68,2243.59 2987.2,2244.26 2986.9,2245.23C2986.6,2246.2 2986.45,2247.56 2986.45,2249.33L2992.55,2249.33Z" style="fill:rgb(39,76,119);fill-rule:nonzero;"/>
                <path d="M3017.3,2264.83C3013.74,2264.83 3010.97,2263.81 3009,2261.78C3007.03,2259.74 3006.05,2256.23 3006.05,2251.23C3006.05,2247.66 3006.49,2244.86 3007.35,2242.83C3008.22,2240.8 3009.49,2239.36 3011.15,2238.53C3012.82,2237.7 3014.93,2237.28 3017.5,2237.28C3020.74,2237.28 3023.85,2237.7 3026.85,2238.53L3026.85,2242.78L3019.8,2242.78C3018.2,2242.78 3016.95,2243.01 3016.05,2243.48C3015.15,2243.95 3014.49,2244.78 3014.08,2245.98C3013.66,2247.18 3013.45,2248.91 3013.45,2251.18C3013.45,2253.41 3013.66,2255.1 3014.08,2256.25C3014.49,2257.4 3015.15,2258.19 3016.05,2258.6C3016.95,2259.02 3018.24,2259.23 3019.9,2259.23L3027.25,2259.23L3027.25,2263.43C3025.99,2263.83 3024.43,2264.16 3022.6,2264.43C3020.77,2264.7 3019,2264.83 3017.3,2264.83Z" style="fill:rgb(39,76,119);fill-rule:nonzero;"/>
                <path d="M3039.75,2264.63C3036.92,2264.63 3034.81,2263.92 3033.43,2262.5C3032.04,2261.09 3031.35,2258.88 3031.35,2255.88L3031.35,2226.38L3038.75,2226.38L3038.75,2254.78C3038.75,2256.21 3038.97,2257.24 3039.4,2257.85C3039.84,2258.47 3040.55,2258.85 3041.55,2258.98L3043.6,2259.28L3043.6,2264.63L3039.75,2264.63Z" style="fill:rgb(39,76,119);fill-rule:nonzero;"/>
                <path d="M3058.5,2264.78C3055.47,2264.78 3053.07,2264.35 3051.3,2263.5C3049.53,2262.65 3048.24,2261.24 3047.43,2259.25C3046.61,2257.27 3046.2,2254.53 3046.2,2251.03C3046.2,2247.39 3046.61,2244.59 3047.43,2242.6C3048.24,2240.62 3049.53,2239.24 3051.3,2238.45C3053.07,2237.67 3055.47,2237.28 3058.5,2237.28C3061.57,2237.28 3063.99,2237.69 3065.75,2238.5C3067.52,2239.32 3068.81,2240.72 3069.63,2242.7C3070.44,2244.69 3070.85,2247.46 3070.85,2251.03C3070.85,2254.6 3070.45,2257.37 3069.65,2259.35C3068.85,2261.34 3067.57,2262.74 3065.8,2263.55C3064.03,2264.37 3061.6,2264.78 3058.5,2264.78ZM3058.5,2258.88C3059.8,2258.88 3060.78,2258.7 3061.45,2258.35C3062.12,2258 3062.62,2257.27 3062.95,2256.15C3063.28,2255.04 3063.45,2253.33 3063.45,2251.03C3063.45,2248.73 3063.28,2247.02 3062.95,2245.9C3062.62,2244.79 3062.12,2244.05 3061.45,2243.7C3060.78,2243.35 3059.8,2243.18 3058.5,2243.18C3057.24,2243.18 3056.27,2243.35 3055.6,2243.7C3054.93,2244.05 3054.43,2244.79 3054.1,2245.9C3053.77,2247.02 3053.6,2248.73 3053.6,2251.03C3053.6,2253.33 3053.77,2255.04 3054.1,2256.15C3054.43,2257.27 3054.93,2258 3055.6,2258.35C3056.27,2258.7 3057.24,2258.88 3058.5,2258.88Z" style="fill:rgb(39,76,119);fill-rule:nonzero;"/>
                <path d="M3083.35,2264.83C3080.92,2264.83 3079.03,2264.11 3077.68,2262.68C3076.33,2261.24 3075.65,2259.24 3075.65,2256.68L3075.65,2237.68L3083.05,2237.68L3083.05,2254.48C3083.05,2255.91 3083.38,2256.9 3084.03,2257.45C3084.68,2258 3085.65,2258.28 3086.95,2258.28C3087.89,2258.28 3088.84,2258.1 3089.83,2257.75C3090.81,2257.4 3091.68,2256.93 3092.45,2256.33L3092.45,2237.68L3099.9,2237.68L3099.9,2264.53L3093.75,2264.53L3092.45,2261.78C3089.35,2263.81 3086.32,2264.83 3083.35,2264.83Z" style="fill:rgb(39,76,119);fill-rule:nonzero;"/>
                <path d="M3114.3,2264.83C3111.07,2264.83 3108.66,2263.78 3107.08,2261.68C3105.49,2259.58 3104.7,2256.14 3104.7,2251.38C3104.7,2247.98 3105.01,2245.26 3105.63,2243.23C3106.24,2241.2 3107.28,2239.7 3108.75,2238.73C3110.22,2237.76 3112.24,2237.28 3114.8,2237.28C3117,2237.28 3119.28,2237.7 3121.65,2238.53L3121.65,2226.38L3129.1,2226.38L3129.1,2264.53L3122.85,2264.53L3121.65,2261.98C3120.72,2262.78 3119.59,2263.45 3118.25,2264C3116.92,2264.55 3115.6,2264.83 3114.3,2264.83ZM3116.9,2258.88C3118.5,2258.88 3120.09,2258.38 3121.65,2257.38L3121.65,2243.88C3120.78,2243.55 3120.01,2243.29 3119.33,2243.1C3118.64,2242.92 3117.93,2242.83 3117.2,2242.83C3115.9,2242.83 3114.89,2243.05 3114.18,2243.5C3113.46,2243.95 3112.93,2244.77 3112.6,2245.95C3112.27,2247.14 3112.1,2248.83 3112.1,2251.03C3112.1,2253.13 3112.26,2254.74 3112.58,2255.85C3112.89,2256.97 3113.39,2257.75 3114.08,2258.2C3114.76,2258.65 3115.7,2258.88 3116.9,2258.88Z" style="fill:rgb(39,76,119);fill-rule:nonzero;"/>
            </g>
        </g>
    </g>
</svg>
