<?xml version="1.0" encoding="UTF-8" standalone="no"?>
<!DOCTYPE svg PUBLIC "-//W3C//DTD SVG 1.1//EN" "http://www.w3.org/Graphics/SVG/1.1/DTD/svg11.dtd">
<svg width="100%" height="100%" viewBox="0 0 1200 760" version="1.1" xmlns="http://www.w3.org/2000/svg" xmlns:xlink="http://www.w3.org/1999/xlink" xml:space="preserve" xmlns:serif="http://www.serif.com/" style="fill-rule:evenodd;clip-rule:evenodd;stroke-linejoin:round;stroke-miterlimit:1.41421;">
    <g transform="matrix(1,0,0,1,-1484.55,-945.422)">
        <g id="Artboard1" transform="matrix(1,0,0,1,1484.55,945.422)">
            <rect x="0" y="0" width="1200" height="760" style="fill:none;"/>
            <g transform="matrix(1,0,0,1,259.802,132.838)">
                <g transform="matrix(1,0,0,1,-295.294,-945.422)">
                    <rect x="295.39" y="945.422" width="164.775" height="164.775" style="fill:white;"/>
                </g>
                <g transform="matrix(1,0,0,1,-9.63177,-936.914)">
                    <path d="M65.637,1010.67C66.277,1002.69 70.941,995.105 77.841,990.938C81.701,988.607 86.186,987.35 90.692,987.3C90.795,987.3 90.898,987.299 91.001,987.299C97.313,987.324 103.595,989.814 108.182,994.069C111.053,996.732 113.159,1000.15 114.411,1003.83C122.524,1004.13 130.384,1008.77 134.506,1015.94C138.024,1022.05 138.741,1029.77 136.064,1036.38C134.404,1040.47 131.526,1044.04 127.97,1046.65C126.916,1047.42 125.742,1048.05 124.527,1048.61L124.487,1048.62C123.644,1048.99 122.782,1049.31 121.905,1049.58C118.973,1050.48 115.822,1050.75 112.845,1050.63L112.771,1050.63L96.542,1049.92L83.862,1049.4L96.541,1048.88C101.973,1048.64 107.406,1048.42 112.837,1048.17C113.149,1048.15 113.46,1048.13 113.771,1048.1C113.881,1048.09 113.992,1048.08 114.102,1048.07C116.356,1047.83 118.554,1047.03 120.497,1046.1C122.233,1045.27 123.884,1044.21 125.341,1043.07C126.124,1042.45 126.941,1041.8 127.671,1041.08C132.251,1036.53 134.346,1029.64 132.642,1023.03C130.656,1015.31 123.693,1009.2 115.499,1008.36C115.571,1008.86 115.627,1009.36 115.669,1009.86C116.196,1016.23 114.056,1022.82 109.866,1027.7C105.346,1032.97 98.404,1036.18 91.159,1035.93C91.053,1035.92 90.948,1035.92 90.843,1035.91L90.843,1035.75C97.544,1035.41 104.024,1032.09 108.025,1026.76C112.936,1020.22 114.046,1011.14 109.989,1003.48C106.275,996.472 98.858,991.763 90.989,991.743C82.99,991.722 75.146,996.686 71.809,1004.16C70.818,1006.38 70.227,1008.76 70.054,1011.19C72.65,1011.86 75.104,1013.08 77.204,1014.76C77.204,1014.76 77.596,1014.97 76.901,1014.65C74.464,1013.56 71.796,1013 69.137,1013.06C66.554,1013.05 63.963,1013.61 61.623,1014.72C59.182,1015.8 56.981,1017.47 55.267,1019.5C55.045,1019.76 54.024,1020.93 53.324,1022.09C50.222,1027.23 50.237,1034.1 53.506,1039.26C57.318,1045.28 65.255,1048.42 72.398,1046.1C78.866,1043.99 83.65,1037.57 83.705,1030.64C83.731,1025.1 83.685,1019.52 84.702,1014.1L84.705,1014.09C84.858,1013.48 85.026,1012.88 85.218,1012.29C85.274,1012.11 85.718,1010.99 86.22,1010.05C86.22,1010.05 86.919,1008.91 87.62,1008.13C88.121,1007.57 88.686,1007.07 89.315,1006.66C89.382,1006.62 90.445,1006.06 91.435,1005.9C91.783,1005.84 92.137,1005.81 92.49,1005.82C93.048,1005.82 93.603,1005.9 94.145,1006.03C94.145,1006.03 94.433,1005.97 93.899,1006.12C92.648,1006.48 91.488,1007.21 90.8,1008.33C89.992,1009.67 89.555,1011.49 89.341,1013.16C89.341,1013.16 89.09,1014.7 88.9,1015.9C88.132,1020.77 88.172,1025.74 88.148,1030.66C88.097,1037.12 84.845,1043.51 79.589,1047.35C73.872,1051.52 66.011,1052.51 59.363,1049.75C52.742,1046.99 47.773,1040.64 46.749,1033.5C45.881,1027.44 47.815,1021.07 51.987,1016.5C53.05,1015.33 54.366,1014.32 55.748,1013.45C57.147,1012.56 58.692,1011.91 60.283,1011.42C61.992,1010.89 63.812,1010.66 65.637,1010.67Z" style="fill:rgb(39,76,119);"/>
                </g>
            </g>
            <g transform="matrix(2,0,0,2,94.8348,297.613)">
                <g transform="matrix(1,0,0,1,-295.294,-945.422)">
                    <rect x="295.39" y="945.422" width="164.775" height="164.775" style="fill:white;"/>
                </g>
                <g transform="matrix(1,0,0,1,-9.63177,-936.914)">
                    <path d="M65.637,1010.67C66.277,1002.69 70.941,995.105 77.841,990.938C81.701,988.607 86.186,987.35 90.692,987.3C90.795,987.3 90.898,987.299 91.001,987.299C97.313,987.324 103.595,989.814 108.182,994.069C111.053,996.732 113.159,1000.15 114.411,1003.83C122.524,1004.13 130.384,1008.77 134.506,1015.94C138.024,1022.05 138.741,1029.77 136.064,1036.38C134.404,1040.47 131.526,1044.04 127.97,1046.65C126.916,1047.42 125.742,1048.05 124.527,1048.61L124.487,1048.62C123.644,1048.99 122.782,1049.31 121.905,1049.58C118.973,1050.48 115.822,1050.75 112.845,1050.63L112.771,1050.63L96.542,1049.92L83.862,1049.4L96.541,1048.88C101.973,1048.64 107.406,1048.42 112.837,1048.17C113.149,1048.15 113.46,1048.13 113.771,1048.1C113.881,1048.09 113.992,1048.08 114.102,1048.07C116.356,1047.83 118.554,1047.03 120.497,1046.1C122.233,1045.27 123.884,1044.21 125.341,1043.07C126.124,1042.45 126.941,1041.8 127.671,1041.08C132.251,1036.53 134.346,1029.64 132.642,1023.03C130.656,1015.31 123.693,1009.2 115.499,1008.36C115.571,1008.86 115.627,1009.36 115.669,1009.86C116.196,1016.23 114.056,1022.82 109.866,1027.7C105.346,1032.97 98.404,1036.18 91.159,1035.93C91.053,1035.92 90.948,1035.92 90.843,1035.91L90.843,1035.75C97.544,1035.41 104.024,1032.09 108.025,1026.76C112.936,1020.22 114.046,1011.14 109.989,1003.48C106.275,996.472 98.858,991.763 90.989,991.743C82.99,991.722 75.146,996.686 71.809,1004.16C70.818,1006.38 70.227,1008.76 70.054,1011.19C72.65,1011.86 75.104,1013.08 77.204,1014.76C77.204,1014.76 77.596,1014.97 76.901,1014.65C74.464,1013.56 71.796,1013 69.137,1013.06C66.554,1013.05 63.963,1013.61 61.623,1014.72C59.182,1015.8 56.981,1017.47 55.267,1019.5C55.045,1019.76 54.024,1020.93 53.324,1022.09C50.222,1027.23 50.237,1034.1 53.506,1039.26C57.318,1045.28 65.255,1048.42 72.398,1046.1C78.866,1043.99 83.65,1037.57 83.705,1030.64C83.731,1025.1 83.685,1019.52 84.702,1014.1L84.705,1014.09C84.858,1013.48 85.026,1012.88 85.218,1012.29C85.274,1012.11 85.718,1010.99 86.22,1010.05C86.22,1010.05 86.919,1008.91 87.62,1008.13C88.121,1007.57 88.686,1007.07 89.315,1006.66C89.382,1006.62 90.445,1006.06 91.435,1005.9C91.783,1005.84 92.137,1005.81 92.49,1005.82C93.048,1005.82 93.603,1005.9 94.145,1006.03C94.145,1006.03 94.433,1005.97 93.899,1006.12C92.648,1006.48 91.488,1007.21 90.8,1008.33C89.992,1009.67 89.555,1011.49 89.341,1013.16C89.341,1013.16 89.09,1014.7 88.9,1015.9C88.132,1020.77 88.172,1025.74 88.148,1030.66C88.097,1037.12 84.845,1043.51 79.589,1047.35C73.872,1051.52 66.011,1052.51 59.363,1049.75C52.742,1046.99 47.773,1040.64 46.749,1033.5C45.881,1027.44 47.815,1021.07 51.987,1016.5C53.05,1015.33 54.366,1014.32 55.748,1013.45C57.147,1012.56 58.692,1011.91 60.283,1011.42C61.992,1010.89 63.812,1010.66 65.637,1010.67Z" style="fill:rgb(39,76,119);"/>
                </g>
            </g>
            <g transform="matrix(2,0,0,2,424.577,297.613)">
                <g transform="matrix(1,0,0,1,-295.294,-945.422)">
                    <rect x="295.39" y="945.422" width="164.775" height="164.775" style="fill:white;"/>
                </g>
                <g transform="matrix(1,0,0,1,-9.63177,-936.914)">
                    <path d="M65.637,1010.67C66.277,1002.69 70.941,995.105 77.841,990.938C81.701,988.607 86.186,987.35 90.692,987.3C90.795,987.3 90.898,987.299 91.001,987.299C97.313,987.324 103.595,989.814 108.182,994.069C111.053,996.732 113.159,1000.15 114.411,1003.83C122.524,1004.13 130.384,1008.77 134.506,1015.94C138.024,1022.05 138.741,1029.77 136.064,1036.38C134.404,1040.47 131.526,1044.04 127.97,1046.65C126.916,1047.42 125.742,1048.05 124.527,1048.61L124.487,1048.62C123.644,1048.99 122.782,1049.31 121.905,1049.58C118.973,1050.48 115.822,1050.75 112.845,1050.63L112.771,1050.63L96.542,1049.92L83.862,1049.4L96.541,1048.88C101.973,1048.64 107.406,1048.42 112.837,1048.17C113.149,1048.15 113.46,1048.13 113.771,1048.1C113.881,1048.09 113.992,1048.08 114.102,1048.07C116.356,1047.83 118.554,1047.03 120.497,1046.1C122.233,1045.27 123.884,1044.21 125.341,1043.07C126.124,1042.45 126.941,1041.8 127.671,1041.08C132.251,1036.53 134.346,1029.64 132.642,1023.03C130.656,1015.31 123.693,1009.2 115.499,1008.36C115.571,1008.86 115.627,1009.36 115.669,1009.86C116.196,1016.23 114.056,1022.82 109.866,1027.7C105.346,1032.97 98.404,1036.18 91.159,1035.93C91.053,1035.92 90.948,1035.92 90.843,1035.91L90.843,1035.75C97.544,1035.41 104.024,1032.09 108.025,1026.76C112.936,1020.22 114.046,1011.14 109.989,1003.48C106.275,996.472 98.858,991.763 90.989,991.743C82.99,991.722 75.146,996.686 71.809,1004.16C70.818,1006.38 70.227,1008.76 70.054,1011.19C72.65,1011.86 75.104,1013.08 77.204,1014.76C77.204,1014.76 77.596,1014.97 76.901,1014.65C74.464,1013.56 71.796,1013 69.137,1013.06C66.554,1013.05 63.963,1013.61 61.623,1014.72C59.182,1015.8 56.981,1017.47 55.267,1019.5C55.045,1019.76 54.024,1020.93 53.324,1022.09C50.222,1027.23 50.237,1034.1 53.506,1039.26C57.318,1045.28 65.255,1048.42 72.398,1046.1C78.866,1043.99 83.65,1037.57 83.705,1030.64C83.731,1025.1 83.685,1019.52 84.702,1014.1L84.705,1014.09C84.858,1013.48 85.026,1012.88 85.218,1012.29C85.274,1012.11 85.718,1010.99 86.22,1010.05C86.22,1010.05 86.919,1008.91 87.62,1008.13C88.121,1007.57 88.686,1007.07 89.315,1006.66C89.382,1006.62 90.445,1006.06 91.435,1005.9C91.783,1005.84 92.137,1005.81 92.49,1005.82C93.048,1005.82 93.603,1005.9 94.145,1006.03C94.145,1006.03 94.433,1005.97 93.899,1006.12C92.648,1006.48 91.488,1007.21 90.8,1008.33C89.992,1009.67 89.555,1011.49 89.341,1013.16C89.341,1013.16 89.09,1014.7 88.9,1015.9C88.132,1020.77 88.172,1025.74 88.148,1030.66C88.097,1037.12 84.845,1043.51 79.589,1047.35C73.872,1051.52 66.011,1052.51 59.363,1049.75C52.742,1046.99 47.773,1040.64 46.749,1033.5C45.881,1027.44 47.815,1021.07 51.987,1016.5C53.05,1015.33 54.366,1014.32 55.748,1013.45C57.147,1012.56 58.692,1011.91 60.283,1011.42C61.992,1010.89 63.812,1010.66 65.637,1010.67Z" style="fill:rgb(240,80,110);"/>
                </g>
            </g>
            <g transform="matrix(2,0,0,2,754.127,297.613)">
                <g transform="matrix(1,0,0,1,-295.294,-945.422)">
                    <rect x="295.39" y="945.422" width="164.775" height="164.775" style="fill:white;"/>
                </g>
                <g transform="matrix(1,0,0,1,-9.63177,-936.914)">
                    <path d="M65.637,1010.67C66.277,1002.69 70.941,995.105 77.841,990.938C81.701,988.607 86.186,987.35 90.692,987.3C90.795,987.3 90.898,987.299 91.001,987.299C97.313,987.324 103.595,989.814 108.182,994.069C111.053,996.732 113.159,1000.15 114.411,1003.83C122.524,1004.13 130.384,1008.77 134.506,1015.94C138.024,1022.05 138.741,1029.77 136.064,1036.38C134.404,1040.47 131.526,1044.04 127.97,1046.65C126.916,1047.42 125.742,1048.05 124.527,1048.61L124.487,1048.62C123.644,1048.99 122.782,1049.31 121.905,1049.58C118.973,1050.48 115.822,1050.75 112.845,1050.63L112.771,1050.63L96.542,1049.92L83.862,1049.4L96.541,1048.88C101.973,1048.64 107.406,1048.42 112.837,1048.17C113.149,1048.15 113.46,1048.13 113.771,1048.1C113.881,1048.09 113.992,1048.08 114.102,1048.07C116.356,1047.83 118.554,1047.03 120.497,1046.1C122.233,1045.27 123.884,1044.21 125.341,1043.07C126.124,1042.45 126.941,1041.8 127.671,1041.08C132.251,1036.53 134.346,1029.64 132.642,1023.03C130.656,1015.31 123.693,1009.2 115.499,1008.36C115.571,1008.86 115.627,1009.36 115.669,1009.86C116.196,1016.23 114.056,1022.82 109.866,1027.7C105.346,1032.97 98.404,1036.18 91.159,1035.93C91.053,1035.92 90.948,1035.92 90.843,1035.91L90.843,1035.75C97.544,1035.41 104.024,1032.09 108.025,1026.76C112.936,1020.22 114.046,1011.14 109.989,1003.48C106.275,996.472 98.858,991.763 90.989,991.743C82.99,991.722 75.146,996.686 71.809,1004.16C70.818,1006.38 70.227,1008.76 70.054,1011.19C72.65,1011.86 75.104,1013.08 77.204,1014.76C77.204,1014.76 77.596,1014.97 76.901,1014.65C74.464,1013.56 71.796,1013 69.137,1013.06C66.554,1013.05 63.963,1013.61 61.623,1014.72C59.182,1015.8 56.981,1017.47 55.267,1019.5C55.045,1019.76 54.024,1020.93 53.324,1022.09C50.222,1027.23 50.237,1034.1 53.506,1039.26C57.318,1045.28 65.255,1048.42 72.398,1046.1C78.866,1043.99 83.65,1037.57 83.705,1030.64C83.731,1025.1 83.685,1019.52 84.702,1014.1L84.705,1014.09C84.858,1013.48 85.026,1012.88 85.218,1012.29C85.274,1012.11 85.718,1010.99 86.22,1010.05C86.22,1010.05 86.919,1008.91 87.62,1008.13C88.121,1007.57 88.686,1007.07 89.315,1006.66C89.382,1006.62 90.445,1006.06 91.435,1005.9C91.783,1005.84 92.137,1005.81 92.49,1005.82C93.048,1005.82 93.603,1005.9 94.145,1006.03C94.145,1006.03 94.433,1005.97 93.899,1006.12C92.648,1006.48 91.488,1007.21 90.8,1008.33C89.992,1009.67 89.555,1011.49 89.341,1013.16C89.341,1013.16 89.09,1014.7 88.9,1015.9C88.132,1020.77 88.172,1025.74 88.148,1030.66C88.097,1037.12 84.845,1043.51 79.589,1047.35C73.872,1051.52 66.011,1052.51 59.363,1049.75C52.742,1046.99 47.773,1040.64 46.749,1033.5C45.881,1027.44 47.815,1021.07 51.987,1016.5C53.05,1015.33 54.366,1014.32 55.748,1013.45C57.147,1012.56 58.692,1011.91 60.283,1011.42C61.992,1010.89 63.812,1010.66 65.637,1010.67Z" style="fill:rgb(50,210,150);"/>
                </g>
            </g>
            <g transform="matrix(1,0,0,1,259.802,132.838)">
                <g transform="matrix(1,0,0,1,-130.519,-945.422)">
                    <rect x="295.39" y="945.422" width="164.775" height="164.775" style="fill:rgb(39,76,119);"/>
                </g>
                <g transform="matrix(1,0,0,1,155.143,-936.914)">
                    <path d="M65.637,1010.67C66.277,1002.69 70.941,995.105 77.841,990.938C81.701,988.607 86.186,987.35 90.692,987.3C90.795,987.3 90.898,987.299 91.001,987.299C97.313,987.324 103.595,989.814 108.182,994.069C111.053,996.732 113.159,1000.15 114.411,1003.83C122.524,1004.13 130.384,1008.77 134.506,1015.94C138.024,1022.05 138.741,1029.77 136.064,1036.38C134.404,1040.47 131.526,1044.04 127.97,1046.65C126.916,1047.42 125.742,1048.05 124.527,1048.61L124.487,1048.62C123.644,1048.99 122.782,1049.31 121.905,1049.58C118.973,1050.48 115.822,1050.75 112.845,1050.63L112.771,1050.63L96.542,1049.92L83.862,1049.4L96.541,1048.88C101.973,1048.64 107.406,1048.42 112.837,1048.17C113.149,1048.15 113.46,1048.13 113.771,1048.1C113.881,1048.09 113.992,1048.08 114.102,1048.07C116.356,1047.83 118.554,1047.03 120.497,1046.1C122.233,1045.27 123.884,1044.21 125.341,1043.07C126.124,1042.45 126.941,1041.8 127.671,1041.08C132.251,1036.53 134.346,1029.64 132.642,1023.03C130.656,1015.31 123.693,1009.2 115.499,1008.36C115.571,1008.86 115.627,1009.36 115.669,1009.86C116.196,1016.23 114.056,1022.82 109.866,1027.7C105.346,1032.97 98.404,1036.18 91.159,1035.93C91.053,1035.92 90.948,1035.92 90.843,1035.91L90.843,1035.75C97.544,1035.41 104.024,1032.09 108.025,1026.76C112.936,1020.22 114.046,1011.14 109.989,1003.48C106.275,996.472 98.858,991.763 90.989,991.743C82.99,991.722 75.146,996.686 71.809,1004.16C70.818,1006.38 70.227,1008.76 70.054,1011.19C72.65,1011.86 75.104,1013.08 77.204,1014.76C77.204,1014.76 77.596,1014.97 76.901,1014.65C74.464,1013.56 71.796,1013 69.137,1013.06C66.554,1013.05 63.963,1013.61 61.623,1014.72C59.182,1015.8 56.981,1017.47 55.267,1019.5C55.045,1019.76 54.024,1020.93 53.324,1022.09C50.222,1027.23 50.237,1034.1 53.506,1039.26C57.318,1045.28 65.255,1048.42 72.398,1046.1C78.866,1043.99 83.65,1037.57 83.705,1030.64C83.731,1025.1 83.685,1019.52 84.702,1014.1L84.705,1014.09C84.858,1013.48 85.026,1012.88 85.218,1012.29C85.274,1012.11 85.718,1010.99 86.22,1010.05C86.22,1010.05 86.919,1008.91 87.62,1008.13C88.121,1007.57 88.686,1007.07 89.315,1006.66C89.382,1006.62 90.445,1006.06 91.435,1005.9C91.783,1005.84 92.137,1005.81 92.49,1005.82C93.048,1005.82 93.603,1005.9 94.145,1006.03C94.145,1006.03 94.433,1005.97 93.899,1006.12C92.648,1006.48 91.488,1007.21 90.8,1008.33C89.992,1009.67 89.555,1011.49 89.341,1013.16C89.341,1013.16 89.09,1014.7 88.9,1015.9C88.132,1020.77 88.172,1025.74 88.148,1030.66C88.097,1037.12 84.845,1043.51 79.589,1047.35C73.872,1051.52 66.011,1052.51 59.363,1049.75C52.742,1046.99 47.773,1040.64 46.749,1033.5C45.881,1027.44 47.815,1021.07 51.987,1016.5C53.05,1015.33 54.366,1014.32 55.748,1013.45C57.147,1012.56 58.692,1011.91 60.283,1011.42C61.992,1010.89 63.812,1010.66 65.637,1010.67Z" style="fill:white;"/>
                </g>
            </g>
            <g transform="matrix(1,0,0,1,424.673,132.838)">
                <g transform="matrix(1,0,0,1,-130.519,-945.422)">
                    <rect x="295.39" y="945.422" width="164.775" height="164.775" style="fill:white;"/>
                </g>
                <g transform="matrix(1,0,0,1,155.143,-936.914)">
                    <path d="M65.637,1010.67C66.277,1002.69 70.941,995.105 77.841,990.938C81.701,988.607 86.186,987.35 90.692,987.3C90.795,987.3 90.898,987.299 91.001,987.299C97.313,987.324 103.595,989.814 108.182,994.069C111.053,996.732 113.159,1000.15 114.411,1003.83C122.524,1004.13 130.384,1008.77 134.506,1015.94C138.024,1022.05 138.741,1029.77 136.064,1036.38C134.404,1040.47 131.526,1044.04 127.97,1046.65C126.916,1047.42 125.742,1048.05 124.527,1048.61L124.487,1048.62C123.644,1048.99 122.782,1049.31 121.905,1049.58C118.973,1050.48 115.822,1050.75 112.845,1050.63L112.771,1050.63L96.542,1049.92L83.862,1049.4L96.541,1048.88C101.973,1048.64 107.406,1048.42 112.837,1048.17C113.149,1048.15 113.46,1048.13 113.771,1048.1C113.881,1048.09 113.992,1048.08 114.102,1048.07C116.356,1047.83 118.554,1047.03 120.497,1046.1C122.233,1045.27 123.884,1044.21 125.341,1043.07C126.124,1042.45 126.941,1041.8 127.671,1041.08C132.251,1036.53 134.346,1029.64 132.642,1023.03C130.656,1015.31 123.693,1009.2 115.499,1008.36C115.571,1008.86 115.627,1009.36 115.669,1009.86C116.196,1016.23 114.056,1022.82 109.866,1027.7C105.346,1032.97 98.404,1036.18 91.159,1035.93C91.053,1035.92 90.948,1035.92 90.843,1035.91L90.843,1035.75C97.544,1035.41 104.024,1032.09 108.025,1026.76C112.936,1020.22 114.046,1011.14 109.989,1003.48C106.275,996.472 98.858,991.763 90.989,991.743C82.99,991.722 75.146,996.686 71.809,1004.16C70.818,1006.38 70.227,1008.76 70.054,1011.19C72.65,1011.86 75.104,1013.08 77.204,1014.76C77.204,1014.76 77.596,1014.97 76.901,1014.65C74.464,1013.56 71.796,1013 69.137,1013.06C66.554,1013.05 63.963,1013.61 61.623,1014.72C59.182,1015.8 56.981,1017.47 55.267,1019.5C55.045,1019.76 54.024,1020.93 53.324,1022.09C50.222,1027.23 50.237,1034.1 53.506,1039.26C57.318,1045.28 65.255,1048.42 72.398,1046.1C78.866,1043.99 83.65,1037.57 83.705,1030.64C83.731,1025.1 83.685,1019.52 84.702,1014.1L84.705,1014.09C84.858,1013.48 85.026,1012.88 85.218,1012.29C85.274,1012.11 85.718,1010.99 86.22,1010.05C86.22,1010.05 86.919,1008.91 87.62,1008.13C88.121,1007.57 88.686,1007.07 89.315,1006.66C89.382,1006.62 90.445,1006.06 91.435,1005.9C91.783,1005.84 92.137,1005.81 92.49,1005.82C93.048,1005.82 93.603,1005.9 94.145,1006.03C94.145,1006.03 94.433,1005.97 93.899,1006.12C92.648,1006.48 91.488,1007.21 90.8,1008.33C89.992,1009.67 89.555,1011.49 89.341,1013.16C89.341,1013.16 89.09,1014.7 88.9,1015.9C88.132,1020.77 88.172,1025.74 88.148,1030.66C88.097,1037.12 84.845,1043.51 79.589,1047.35C73.872,1051.52 66.011,1052.51 59.363,1049.75C52.742,1046.99 47.773,1040.64 46.749,1033.5C45.881,1027.44 47.815,1021.07 51.987,1016.5C53.05,1015.33 54.366,1014.32 55.748,1013.45C57.147,1012.56 58.692,1011.91 60.283,1011.42C61.992,1010.89 63.812,1010.66 65.637,1010.67Z"/>
                </g>
            </g>
            <g transform="matrix(1,0,0,1,589.448,132.838)">
                <g transform="matrix(1,0,0,1,-130.519,-945.422)">
                    <rect x="295.39" y="945.422" width="164.775" height="164.775"/>
                </g>
                <g transform="matrix(1,0,0,1,155.143,-936.914)">
                    <path d="M65.637,1010.67C66.277,1002.69 70.941,995.105 77.841,990.938C81.701,988.607 86.186,987.35 90.692,987.3C90.795,987.3 90.898,987.299 91.001,987.299C97.313,987.324 103.595,989.814 108.182,994.069C111.053,996.732 113.159,1000.15 114.411,1003.83C122.524,1004.13 130.384,1008.77 134.506,1015.94C138.024,1022.05 138.741,1029.77 136.064,1036.38C134.404,1040.47 131.526,1044.04 127.97,1046.65C126.916,1047.42 125.742,1048.05 124.527,1048.61L124.487,1048.62C123.644,1048.99 122.782,1049.31 121.905,1049.58C118.973,1050.48 115.822,1050.75 112.845,1050.63L112.771,1050.63L96.542,1049.92L83.862,1049.4L96.541,1048.88C101.973,1048.64 107.406,1048.42 112.837,1048.17C113.149,1048.15 113.46,1048.13 113.771,1048.1C113.881,1048.09 113.992,1048.08 114.102,1048.07C116.356,1047.83 118.554,1047.03 120.497,1046.1C122.233,1045.27 123.884,1044.21 125.341,1043.07C126.124,1042.45 126.941,1041.8 127.671,1041.08C132.251,1036.53 134.346,1029.64 132.642,1023.03C130.656,1015.31 123.693,1009.2 115.499,1008.36C115.571,1008.86 115.627,1009.36 115.669,1009.86C116.196,1016.23 114.056,1022.82 109.866,1027.7C105.346,1032.97 98.404,1036.18 91.159,1035.93C91.053,1035.92 90.948,1035.92 90.843,1035.91L90.843,1035.75C97.544,1035.41 104.024,1032.09 108.025,1026.76C112.936,1020.22 114.046,1011.14 109.989,1003.48C106.275,996.472 98.858,991.763 90.989,991.743C82.99,991.722 75.146,996.686 71.809,1004.16C70.818,1006.38 70.227,1008.76 70.054,1011.19C72.65,1011.86 75.104,1013.08 77.204,1014.76C77.204,1014.76 77.596,1014.97 76.901,1014.65C74.464,1013.56 71.796,1013 69.137,1013.06C66.554,1013.05 63.963,1013.61 61.623,1014.72C59.182,1015.8 56.981,1017.47 55.267,1019.5C55.045,1019.76 54.024,1020.93 53.324,1022.09C50.222,1027.23 50.237,1034.1 53.506,1039.26C57.318,1045.28 65.255,1048.42 72.398,1046.1C78.866,1043.99 83.65,1037.57 83.705,1030.64C83.731,1025.1 83.685,1019.52 84.702,1014.1L84.705,1014.09C84.858,1013.48 85.026,1012.88 85.218,1012.29C85.274,1012.11 85.718,1010.99 86.22,1010.05C86.22,1010.05 86.919,1008.91 87.62,1008.13C88.121,1007.57 88.686,1007.07 89.315,1006.66C89.382,1006.62 90.445,1006.06 91.435,1005.9C91.783,1005.84 92.137,1005.81 92.49,1005.82C93.048,1005.82 93.603,1005.9 94.145,1006.03C94.145,1006.03 94.433,1005.97 93.899,1006.12C92.648,1006.48 91.488,1007.21 90.8,1008.33C89.992,1009.67 89.555,1011.49 89.341,1013.16C89.341,1013.16 89.09,1014.7 88.9,1015.9C88.132,1020.77 88.172,1025.74 88.148,1030.66C88.097,1037.12 84.845,1043.51 79.589,1047.35C73.872,1051.52 66.011,1052.51 59.363,1049.75C52.742,1046.99 47.773,1040.64 46.749,1033.5C45.881,1027.44 47.815,1021.07 51.987,1016.5C53.05,1015.33 54.366,1014.32 55.748,1013.45C57.147,1012.56 58.692,1011.91 60.283,1011.42C61.992,1010.89 63.812,1010.66 65.637,1010.67Z" style="fill:white;"/>
                </g>
            </g>
        </g>
    </g>
</svg>
