<?xml version="1.0" encoding="UTF-8" standalone="no"?>
<!DOCTYPE svg PUBLIC "-//W3C//DTD SVG 1.1//EN" "http://www.w3.org/Graphics/SVG/1.1/DTD/svg11.dtd">
<svg width="100%" height="100%" viewBox="0 0 1200 760" version="1.1" xmlns="http://www.w3.org/2000/svg" xmlns:xlink="http://www.w3.org/1999/xlink" xml:space="preserve" xmlns:serif="http://www.serif.com/" style="fill-rule:evenodd;clip-rule:evenodd;stroke-linejoin:round;stroke-miterlimit:1.41421;">
    <g transform="matrix(1,0,0,1,-1484.55,-2927.41)">
        <g id="Artboard1" transform="matrix(1,0,0,1,1484.55,2927.41)">
            <rect x="0" y="0" width="1200" height="760" style="fill:none;"/>
            <g transform="matrix(0.508473,0,0,0.508473,-1094.37,-2934.42)">
                <path d="M3182.2,6351.1C3185.81,6306.2 3212.05,6263.55 3250.87,6240.1C3272.59,6226.99 3297.83,6219.91 3323.18,6219.64C3323.76,6219.63 3324.33,6219.63 3324.91,6219.63C3360.43,6219.77 3395.77,6233.78 3421.58,6257.72C3437.73,6272.7 3449.59,6291.94 3456.63,6312.65C3502.27,6314.33 3546.5,6340.44 3569.69,6380.75C3589.48,6415.15 3593.52,6458.6 3578.45,6495.75C3569.11,6518.78 3552.93,6538.86 3532.91,6553.56C3526.99,6557.91 3520.38,6561.43 3513.54,6564.57L3513.32,6564.67C3508.58,6566.71 3503.73,6568.49 3498.79,6570.01C3482.29,6575.09 3464.57,6576.6 3447.82,6575.98L3447.4,6575.96L3356.09,6571.97L3284.75,6569.04L3356.09,6566.12C3386.65,6564.78 3417.22,6563.55 3447.77,6562.11C3449.53,6562.02 3451.28,6561.9 3453.03,6561.74C3453.65,6561.68 3454.27,6561.62 3454.89,6561.55C3467.57,6560.19 3479.94,6555.7 3490.87,6550.46C3500.64,6545.78 3509.93,6539.82 3518.12,6533.4C3522.53,6529.93 3527.12,6526.28 3531.23,6522.2C3557,6496.63 3568.79,6457.86 3559.2,6420.64C3548.03,6377.25 3508.85,6342.84 3462.75,6338.12C3463.15,6340.92 3463.47,6343.73 3463.7,6346.54C3466.67,6382.4 3454.63,6419.48 3431.06,6446.95C3405.63,6476.59 3366.57,6494.67 3325.8,6493.22C3325.21,6493.2 3324.62,6493.17 3324.03,6493.14L3324.03,6492.22C3361.73,6490.35 3398.19,6471.65 3420.7,6441.66C3448.33,6404.86 3454.57,6353.76 3431.75,6310.68C3410.85,6271.24 3369.12,6244.75 3324.85,6244.63C3279.84,6244.51 3235.71,6272.44 3216.93,6314.48C3211.36,6326.96 3208.03,6340.39 3207.06,6354.05C3221.67,6357.82 3235.47,6364.67 3247.29,6374.16C3247.29,6374.16 3249.49,6375.29 3245.58,6373.51C3231.87,6367.36 3216.86,6364.22 3201.9,6364.58C3187.37,6364.49 3172.79,6367.64 3159.62,6373.93C3145.89,6380 3133.51,6389.35 3123.86,6400.78C3122.62,6402.26 3116.87,6408.86 3112.93,6415.39C3095.48,6444.3 3095.56,6482.92 3113.95,6511.98C3135.4,6545.87 3180.06,6563.5 3220.25,6550.44C3256.64,6538.61 3283.56,6502.47 3283.87,6463.46C3284.01,6432.33 3283.75,6400.93 3289.47,6370.44L3289.49,6370.36C3290.35,6366.95 3291.3,6363.57 3292.38,6360.22C3292.69,6359.25 3295.19,6352.92 3298.01,6347.63C3298.01,6347.63 3301.95,6341.23 3305.89,6336.83C3308.71,6333.69 3311.89,6330.86 3315.43,6328.57C3315.81,6328.33 3321.78,6325.18 3327.36,6324.26C3329.32,6323.94 3331.3,6323.8 3333.29,6323.8C3336.43,6323.84 3339.55,6324.27 3342.6,6325.01C3342.6,6325.01 3344.22,6324.66 3341.22,6325.51C3334.18,6327.56 3327.66,6331.63 3323.78,6337.96C3319.24,6345.48 3316.78,6355.7 3315.57,6365.15C3315.57,6365.15 3314.16,6373.78 3313.1,6380.53C3308.77,6407.95 3309,6435.9 3308.86,6463.61C3308.58,6499.93 3290.28,6535.91 3260.71,6557.48C3228.54,6580.95 3184.31,6586.55 3146.91,6570.98C3109.65,6555.48 3081.7,6519.77 3075.93,6479.57C3071.05,6445.5 3081.94,6409.62 3105.41,6383.91C3111.39,6377.36 3118.8,6371.66 3126.57,6366.74C3134.44,6361.75 3143.13,6358.08 3152.09,6355.33C3161.7,6352.39 3171.94,6351.05 3182.2,6351.1Z" style="fill:rgb(39,76,119);"/>
            </g>
            <g transform="matrix(0.508473,0,0,0.508473,-1622.19,-1713.48)">
                <path d="M3970.85,4268.76C3970.85,4257.82 3973.71,4249.35 3979.44,4243.36C3985.17,4237.38 3993.24,4234.38 4003.66,4234.38C4007.63,4234.38 4011.49,4234.77 4015.23,4235.55C4018.97,4236.33 4023.52,4237.8 4028.85,4239.95L4022.02,4254.6C4015.12,4252.32 4009.45,4251.18 4005.03,4251.18C4000.08,4251.18 3996.29,4252.61 3993.65,4255.47C3991.01,4258.34 3989.69,4262.31 3989.69,4267.39L3989.69,4282.52L4018.89,4282.52L4018.89,4298.74L3989.69,4298.74L3989.69,4378.72C3989.69,4385.62 3989.19,4391.95 3988.18,4397.71C3987.17,4403.47 3985.53,4409.54 3983.25,4415.92L3970.85,4415.92L3970.85,4298.74L3952.88,4298.74L3952.88,4282.52L3970.85,4282.52L3970.85,4268.76Z" style="fill:rgb(39,76,119);fill-rule:nonzero;"/>
                <path d="M4053.56,4296.98C4057.14,4291.64 4061.34,4287.6 4066.16,4284.87C4070.98,4282.13 4076.25,4280.77 4081.98,4280.77C4085.82,4280.77 4090.28,4281.48 4095.36,4282.92L4091.94,4301.37C4085.43,4300.07 4081.04,4299.39 4078.76,4299.32C4073.03,4299.32 4068.29,4300.4 4064.55,4302.55C4060.8,4304.69 4057.6,4308.18 4054.93,4312.99L4054.93,4385.36L4036.18,4385.36L4036.18,4282.52L4051.22,4282.52L4053.56,4296.98Z" style="fill:rgb(39,76,119);fill-rule:nonzero;"/>
                <path d="M4120.75,4337.31C4121.27,4347.99 4124.13,4356.16 4129.34,4361.82C4134.55,4367.49 4141.88,4370.32 4151.32,4370.32C4156.52,4370.32 4161.55,4369.77 4166.4,4368.66C4171.25,4367.55 4176.77,4365.66 4182.96,4362.99L4188.91,4376.96C4181.82,4380.41 4175.18,4382.93 4168.99,4384.53C4162.81,4386.12 4156.59,4386.92 4150.34,4386.92C4134.84,4386.92 4122.83,4382.27 4114.3,4372.95C4105.77,4363.65 4101.51,4350.59 4101.51,4333.8C4101.51,4317 4105.71,4303.96 4114.11,4294.68C4122.51,4285.41 4134.39,4280.77 4149.75,4280.77C4164.14,4280.77 4174.87,4285.1 4181.93,4293.76C4188.99,4302.41 4192.53,4315.53 4192.53,4333.11L4192.53,4337.31L4120.75,4337.31ZM4173.09,4321.59C4172.57,4313.58 4170.31,4307.54 4166.31,4303.47C4162.3,4299.4 4156.78,4297.37 4149.75,4297.37C4134.13,4297.37 4124.78,4305.44 4121.73,4321.59L4173.09,4321.59Z" style="fill:rgb(39,76,119);fill-rule:nonzero;"/>
                <path d="M4227.88,4337.31C4228.4,4347.99 4231.26,4356.16 4236.47,4361.82C4241.68,4367.49 4249,4370.32 4258.44,4370.32C4263.65,4370.32 4268.68,4369.77 4273.53,4368.66C4278.38,4367.55 4283.9,4365.66 4290.09,4362.99L4296.04,4376.96C4288.94,4380.41 4282.31,4382.93 4276.12,4384.53C4269.94,4386.12 4263.72,4386.92 4257.47,4386.92C4241.97,4386.92 4229.96,4382.27 4221.43,4372.95C4212.9,4363.65 4208.64,4350.59 4208.64,4333.8C4208.64,4317 4212.84,4303.96 4221.24,4294.68C4229.64,4285.41 4241.52,4280.77 4256.88,4280.77C4271.27,4280.77 4282,4285.1 4289.06,4293.76C4296.12,4302.41 4299.65,4315.53 4299.65,4333.11L4299.65,4337.31L4227.88,4337.31ZM4280.22,4321.59C4279.7,4313.58 4277.44,4307.54 4273.43,4303.47C4269.43,4299.4 4263.91,4297.37 4256.88,4297.37C4241.26,4297.37 4231.91,4305.44 4228.85,4321.59L4280.22,4321.59Z" style="fill:rgb(39,76,119);fill-rule:nonzero;"/>
                <path d="M4364.99,4280.77C4375.73,4280.77 4386.05,4283.63 4395.94,4289.36L4389.4,4304.4C4381,4299.71 4372.86,4297.37 4364.99,4297.37C4355.42,4297.37 4348.03,4300.53 4342.82,4306.84C4337.61,4313.16 4335.01,4322.14 4335.01,4333.8C4335.01,4345.51 4337.68,4354.47 4343.01,4360.65C4348.35,4366.84 4356.07,4369.93 4366.16,4369.93C4369.87,4369.93 4374.04,4369.36 4378.66,4368.22C4383.28,4367.08 4387.71,4365.6 4391.94,4363.77L4397.02,4378.72C4391.94,4381.12 4386.47,4383.03 4380.61,4384.43C4374.75,4385.83 4369.22,4386.53 4364.01,4386.53C4348.65,4386.53 4336.76,4381.94 4328.37,4372.76C4319.97,4363.58 4315.77,4350.59 4315.77,4333.8C4315.77,4317.13 4320.1,4304.12 4328.76,4294.78C4337.41,4285.44 4349.49,4280.77 4364.99,4280.77Z" style="fill:rgb(39,76,119);fill-rule:nonzero;"/>
                <rect x="4417.72" y="4235.36" width="18.75" height="150" style="fill:rgb(39,76,119);fill-rule:nonzero;"/>
                <path d="M4510.49,4280.57C4525.93,4280.57 4537.9,4285.24 4546.43,4294.59C4554.96,4303.93 4559.23,4317 4559.23,4333.8C4559.23,4350.59 4554.96,4363.65 4546.43,4372.95C4537.9,4382.27 4525.93,4386.92 4510.49,4386.92C4495,4386.92 4482.99,4382.27 4474.46,4372.95C4465.93,4363.65 4461.67,4350.59 4461.67,4333.8C4461.67,4317 4465.93,4303.93 4474.46,4294.59C4482.99,4285.24 4495,4280.57 4510.49,4280.57ZM4510.49,4297.17C4500.86,4297.17 4493.52,4300.3 4488.47,4306.55C4483.43,4312.8 4480.9,4321.88 4480.9,4333.8C4480.9,4345.64 4483.43,4354.69 4488.47,4360.94C4493.52,4367.19 4500.86,4370.32 4510.49,4370.32C4520.07,4370.32 4527.39,4367.19 4532.47,4360.94C4537.55,4354.69 4540.09,4345.64 4540.09,4333.8C4540.09,4321.95 4537.55,4312.88 4532.47,4306.6C4527.39,4300.32 4520.07,4297.17 4510.49,4297.17Z" style="fill:rgb(39,76,119);fill-rule:nonzero;"/>
                <path d="M4600.83,4348.93C4600.83,4356.42 4602.39,4361.89 4605.51,4365.34C4608.64,4368.79 4613.69,4370.51 4620.65,4370.51C4626.51,4370.51 4632.11,4369.15 4637.45,4366.41C4642.79,4363.68 4647.18,4360 4650.63,4355.38L4650.63,4282.52L4669.38,4282.52L4669.38,4385.36L4654.24,4385.36L4651.8,4371.2C4642.75,4381.87 4631.16,4387.18 4617.04,4387.11C4605.58,4387.11 4596.87,4383.99 4590.91,4377.74C4584.96,4371.49 4581.98,4362.38 4581.98,4350.4L4581.98,4282.52L4600.83,4282.52L4600.83,4348.93Z" style="fill:rgb(39,76,119);fill-rule:nonzero;"/>
                <path d="M4770.16,4372.37C4765.74,4377.45 4761.03,4381.14 4756.05,4383.45C4751.07,4385.76 4745.59,4386.92 4739.6,4386.92C4725.21,4386.92 4714.08,4382.46 4706.2,4373.54C4698.32,4364.62 4694.38,4351.96 4694.38,4335.55C4694.38,4318.49 4699.05,4305.1 4708.4,4295.37C4717.74,4285.63 4730.68,4280.77 4747.21,4280.77C4753.2,4280.77 4760.46,4281.71 4768.99,4283.6L4768.99,4235.36L4787.74,4235.36L4787.74,4385.16L4772.8,4385.16L4770.16,4372.37ZM4740.77,4370.32C4747.34,4370.32 4753.09,4368.56 4758.01,4365.05C4762.92,4361.53 4766.58,4356.58 4768.99,4350.2L4768.99,4300.4C4763.65,4299.09 4759.65,4298.26 4756.98,4297.91C4754.31,4297.55 4751.12,4297.37 4747.41,4297.37C4736.73,4297.37 4728.43,4300.74 4722.51,4307.48C4716.58,4314.21 4713.62,4323.57 4713.62,4335.55C4713.62,4346.62 4715.98,4355.18 4720.7,4361.24C4725.42,4367.29 4732.11,4370.32 4740.77,4370.32Z" style="fill:rgb(39,76,119);fill-rule:nonzero;"/>
            </g>
        </g>
    </g>
</svg>
